# xmcd
#
# Track frame offsets:
#	150
#	10552
#	20919
#	27831
#	37048
#	48643
#	56201
#	72891
#	83902
#	91008
#	101596
#	113777
#	124864
#	130392
#	137083
#	147618
#	160923
#	177529
#	189801
#	202631
#	218858
#	232717
#	240183
#	250847
#	256710
#	266306
#	278841
#	288442
#	306151
#	320596
#	338267
#
# Disc length: 4739 seconds
#
# Revision: 0
# Processed by: cddbd v1.5.2PL0 Copyright (c) Steve Scherf et al.
# Submitted via: EasyCDDAExtractor 2010.6.0.0
#
DISCID=ae12811f
DTITLE=Various Artist - Bodywork 9 CD 1
DYEAR=2009
DGENRE=Gym
TTITLE0=Pitbull - I Know You Want Me (Calle Ocho)
TTITLE1=2\n\nRöyksopp feat. Robyn - The Girl and The Robot (Spencer and Hill r
TTITLE1=emix)
TTITLE2=Rudenko - Everybody
TTITLE3=Camille Jones - Get Me Out (Jason Gault extended mix)
TTITLE4=Tom Pulse - Cuando (Floresca el Chuno)
TTITLE5=Fedde le Grand feat. Mitch Crown - Scared of Me
TTITLE6=Alex Gaudino and Jason Rooney - I Love Rock 'n' Roll
TTITLE7=Melodie Mc - Dum Da Dum
TTITLE8=Glamrock Brothers - Ma Baker (Michael Mind remix)
TTITLE9=Agnes - Release Me (Cahill Club mix)
TTITLE10=R.I.O. - After The Love
TTITLE11=Erik Hassle - Hurtful (FattyPunk remix)
TTITLE12=Velvet - Come Into The Night
TTITLE13=Ida Corr - I Want You (Jason Gault remix)
TTITLE14=Pauline - Give Me A Call - Eric S remix
TTITLE15=Axwell, Ingrosso, Angello, feat Cox - Leave The World Behind
TTITLE16=Cidinho and Doca - Rap das Armas (Lucana club mix)
TTITLE17=David Guetta feat. Kelly Rowland - When Love Takes Over
TTITLE18=Kid Cudi vs. Crookers - Day 'N' Night (Mobin Master rmx)
TTITLE19=Laurent Wolf - Wash My World
TTITLE20=James Doman - Everything's Gonna Be Alright
TTITLE21=Michael Mind - Love's Gonna Get You
TTITLE22=BWO - Right Here Right Now - (Oscar Holter Extended Club)
TTITLE23=Sean Kingston - Fire Burning
TTITLE24=4 Strings - Take Me Away (Into The Night)
TTITLE25=Oskar Zenkert - Oriental
TTITLE26=DJ Timo feat. Interface - Dance Like Hell
TTITLE27=Manian - Welcome To The Club (video mix)
TTITLE28=Hurricane - Baby On Ice
TTITLE29=Paperboys - Lonesome Travelle
TTITLE30=Anna Maria Espinosa - Glowing With You
EXTD=
EXTT0=
EXTT1=
EXTT2=
EXTT3=
EXTT4=
EXTT5=
EXTT6=
EXTT7=
EXTT8=
EXTT9=
EXTT10=
EXTT11=
EXTT12=
EXTT13=
EXTT14=
EXTT15=
EXTT16=
EXTT17=
EXTT18=
EXTT19=
EXTT20=
EXTT21=
EXTT22=
EXTT23=
EXTT24=
EXTT25=
EXTT26=
EXTT27=
EXTT28=
EXTT29=
EXTT30=
PLAYORDER=
